<?xml version="1.0" standalone="no"?>
<!DOCTYPE svg PUBLIC "-//W3C//DTD SVG 20010904//EN"
 "http://www.w3.org/TR/2001/REC-SVG-20010904/DTD/svg10.dtd">
<svg version="1.0" xmlns="http://www.w3.org/2000/svg"
 width="640.000000pt" height="640.000000pt" viewBox="0 0 640.000000 640.000000"
 preserveAspectRatio="xMidYMid meet">

<g transform="translate(0.000000,640.000000) scale(0.100000,-0.100000)"
fill="#000000" stroke="none">
<path d="M1890 4764 c-14 -2 -52 -9 -85 -15 -169 -29 -402 -128 -542 -231 -93
-68 -268 -290 -333 -423 -104 -213 -135 -342 -135 -580 0 -308 21 -403 146
-660 53 -109 152 -250 224 -320 238 -232 555 -350 892 -331 189 10 488 64 575
102 46 21 85 12 90 -18 4 -32 51 -38 243 -31 113 4 163 9 170 18 18 21 43 21
59 0 14 -19 26 -20 317 -20 233 0 303 3 306 13 3 6 11 12 19 12 8 0 14 6 14
13 0 8 3 8 8 2 8 -12 47 -14 58 -2 4 4 18 7 30 7 13 0 25 4 28 9 3 4 -10 7
-29 6 -40 -2 -69 11 -45 19 8 3 22 5 30 4 36 -3 70 3 70 12 0 6 -7 10 -15 10
-9 0 -12 6 -8 17 4 11 8 12 11 5 6 -18 40 -14 52 6 7 12 10 13 8 2 -2 -8 0
-16 5 -17 18 -7 26 -2 21 12 -4 11 1 15 17 15 20 0 21 2 9 11 -13 9 -12 10 3
5 9 -3 30 0 45 6 15 6 36 13 47 14 55 10 64 15 58 30 -5 13 -7 13 -14 2 -14
-23 -31 5 -20 33 5 13 10 18 10 12 1 -7 6 -13 12 -13 7 0 18 -8 25 -17 13 -17
14 -17 8 0 -5 13 -2 16 9 11 20 -7 65 16 167 90 105 76 105 75 140 108 16 14
39 29 50 33 12 4 19 9 16 12 -10 10 15 32 30 26 7 -3 17 2 20 11 3 9 10 14 14
11 12 -8 81 66 73 78 -3 6 -1 7 5 3 7 -4 21 -1 33 7 15 11 17 16 7 20 -7 3 -3
6 9 6 12 1 30 9 40 19 10 10 41 35 69 55 55 39 93 80 193 203 36 43 80 95 99
116 19 20 31 41 28 47 -4 7 -1 9 8 5 9 -3 16 -2 16 2 0 5 22 34 50 64 27 30
49 58 50 61 0 3 13 23 30 44 16 20 27 42 23 48 -3 6 -1 7 5 3 11 -6 38 31 34
47 -1 4 4 7 12 7 14 0 66 68 66 87 0 6 10 20 23 30 13 10 22 24 19 32 -3 8 0
11 6 7 6 -4 16 3 22 15 9 15 9 19 1 14 -6 -3 -11 -3 -10 2 1 4 1 17 0 28 -2
19 -3 19 -11 -2 -7 -16 -14 -20 -32 -15 -12 3 -17 7 -11 9 7 3 9 12 6 21 -3
12 -2 13 4 4 7 -10 16 -9 41 4 18 8 32 21 32 27 0 8 -3 7 -9 -2 -5 -8 -16 -11
-29 -7 -18 6 -65 -17 -108 -53 -7 -6 -14 -7 -17 -4 -4 3 -27 -9 -53 -26 -26
-17 -55 -31 -64 -31 -9 0 -20 -4 -25 -9 -6 -5 -57 -32 -115 -62 -58 -29 -128
-67 -155 -84 -52 -33 -182 -103 -363 -195 -57 -29 -106 -59 -109 -66 -2 -7
-19 -18 -36 -24 -18 -7 -26 -14 -19 -17 14 -5 17 -33 3 -33 -5 0 -11 7 -15 15
-3 8 -12 15 -21 15 -20 0 -20 -39 0 -46 8 -4 15 -11 15 -17 0 -7 -4 -7 -12 1
-7 7 -19 12 -28 12 -10 0 -21 10 -26 21 -9 20 -11 21 -27 5 -9 -10 -17 -14
-17 -10 0 3 -7 1 -15 -6 -8 -6 -18 -9 -23 -6 -6 3 -15 0 -21 -8 -8 -10 -5 -15
14 -24 14 -6 31 -9 39 -6 9 3 20 -3 28 -15 7 -12 19 -21 26 -21 7 0 21 -6 32
-12 16 -10 24 -10 39 -1 15 10 20 9 25 -2 3 -8 15 -15 26 -15 12 0 35 -7 52
-16 16 -8 50 -16 74 -17 42 -2 54 -9 35 -21 -5 -3 -8 -17 -8 -31 0 -14 -7 -33
-15 -43 -9 -9 -14 -23 -12 -30 1 -7 0 -8 -2 -3 -9 16 -42 0 -74 -35 -17 -19
-35 -34 -41 -34 -6 0 -9 -7 -5 -15 4 -10 -1 -15 -14 -15 -11 0 -20 -6 -20 -12
0 -9 -3 -8 -10 2 -8 12 -13 11 -37 -11 -15 -14 -38 -34 -49 -45 -12 -10 -23
-28 -25 -38 -2 -10 -11 -22 -19 -26 -8 -4 -46 -22 -85 -40 -38 -19 -93 -51
-122 -72 -29 -21 -60 -38 -70 -38 -10 0 -27 -7 -37 -15 -11 -8 -28 -15 -37
-15 -10 0 -22 -6 -26 -13 -9 -14 -26 -22 -138 -67 -44 -17 -99 -40 -123 -51
-23 -10 -49 -19 -57 -19 -8 0 -15 -5 -15 -11 0 -7 -14 -10 -35 -7 -22 2 -36
-1 -39 -9 -3 -7 -16 -11 -28 -9 -13 2 -29 -2 -37 -8 -11 -8 -13 -8 -7 2 10 17
-9 15 -28 -3 -9 -9 -33 -15 -61 -15 -34 0 -44 -3 -39 -12 6 -10 4 -10 -7 -2
-18 15 -129 16 -129 1 0 -7 -4 -7 -12 1 -22 22 -138 11 -138 -13 0 -8 6 -16
13 -18 6 -3 2 -6 -10 -6 -26 -1 -25 -10 -28 189 -1 69 -6 231 -10 360 -4 129
-6 276 -5 325 1 50 3 185 4 300 l1 210 -200 -1 c-400 -1 -855 -16 -865 -29 -7
-8 -9 -99 -8 -246 l3 -234 230 -3 c202 -2 232 -4 243 -19 16 -22 16 -232 0
-268 -13 -29 -100 -75 -162 -86 -22 -3 -75 -12 -116 -19 -89 -15 -263 -8 -332
14 -98 31 -241 125 -301 199 -116 144 -186 389 -158 558 25 159 70 264 163
385 118 154 251 214 470 214 183 0 295 -33 390 -114 45 -39 68 -38 60 1 -7 38
17 129 55 208 53 109 68 129 155 220 38 38 68 72 68 75 -2 17 -203 125 -270
144 -130 37 -566 77 -660 60z m3686 -959 c12 -8 25 -11 29 -7 5 4 5 1 1 -6 -4
-7 -15 -11 -23 -10 -9 2 -18 -3 -21 -11 -3 -9 0 -11 8 -6 9 5 11 4 6 -4 -6 -9
-11 -9 -22 0 -8 6 -14 8 -14 5 0 -4 -9 -2 -19 4 -24 13 -23 -9 2 -34 19 -19
22 -36 7 -36 -5 0 -10 7 -10 15 0 18 -5 18 -33 4 -18 -9 -20 -9 -9 2 17 18 15
34 -3 19 -8 -7 -22 -9 -32 -6 -15 6 -14 8 4 21 12 8 29 12 37 9 12 -5 15 -2
10 10 -4 10 -1 17 7 18 8 0 19 2 24 3 6 2 17 3 25 4 13 1 13 2 0 11 -8 5 -10
10 -5 10 6 0 20 -7 31 -15z m-186 -82 c0 -14 -15 -28 -27 -28 -7 0 -13 -3 -13
-7 0 -5 0 -12 0 -17 0 -13 49 -20 54 -7 2 6 5 2 5 -9 1 -16 3 -17 10 -6 14 22
47 21 47 -1 0 -23 -12 -23 -26 0 -10 15 -11 14 -7 -5 3 -14 0 -23 -6 -23 -8 0
-7 -4 2 -9 9 -6 10 -11 2 -15 -10 -6 -15 5 -13 26 1 3 -5 9 -13 12 -8 3 -15 1
-15 -4 0 -6 -12 -10 -27 -10 -22 0 -25 2 -13 10 14 9 7 14 -13 11 -5 -1 -6 3
-3 8 4 6 -5 9 -20 8 -44 -3 -38 19 10 39 24 10 42 22 40 26 -3 5 2 8 10 8 9 0
16 -3 16 -7z m69 -30 c11 -10 10 -12 -7 -10 -11 0 -18 5 -15 11 4 5 -5 6 -21
2 -16 -4 -26 -2 -26 4 0 6 4 9 9 6 5 -3 12 2 15 11 6 14 8 14 19 2 7 -8 18
-19 26 -26z m-166 -65 c-11 -18 -28 -6 -29 21 l-1 30 18 -22 c9 -12 15 -25 12
-29z m-73 7 c0 6 9 11 19 11 16 0 17 -4 10 -18 -5 -10 -12 -18 -15 -18 -3 0
-2 5 1 11 4 6 0 9 -10 7 -10 -2 -20 4 -22 12 -4 13 -3 13 6 0 6 -8 11 -10 11
-5z m-34 -17 c-3 -35 -20 -59 -43 -60 -11 -1 -20 -8 -21 -15 -1 -7 -3 -20 -4
-28 -1 -8 -5 -15 -9 -15 -4 0 -9 -6 -12 -13 -3 -9 4 -12 27 -9 21 2 37 -2 45
-12 17 -20 35 -20 51 -1 14 17 7 19 -19 6 -13 -7 -18 -6 -18 4 0 7 6 11 14 8
7 -3 13 0 13 6 0 6 -13 11 -30 11 -29 0 -40 13 -20 25 6 3 10 1 10 -4 0 -6 8
-11 18 -10 9 0 12 3 6 5 -6 3 -9 15 -7 28 4 17 12 23 33 24 16 0 34 -6 40 -14
7 -7 17 -11 23 -7 6 3 7 1 3 -6 -4 -6 -11 -9 -16 -6 -4 3 -10 2 -13 -2 -2 -5
-2 -2 -1 5 4 14 -24 16 -45 3 -18 -12 25 -42 48 -33 10 3 5 -8 -14 -30 -23
-28 -38 -37 -62 -37 -20 -1 -33 4 -33 12 0 7 -3 8 -8 2 -11 -16 -34 -17 -43
-3 -7 10 -9 10 -9 1 0 -7 -7 -13 -16 -13 -13 0 -14 3 -4 15 7 8 10 22 6 30 -3
9 0 18 8 21 19 7 8 54 -13 54 -14 0 -14 2 -1 10 10 6 16 6 18 0 2 -6 8 -10 14
-10 6 0 7 7 4 16 -4 10 1 22 11 30 23 17 30 17 37 -2 4 -12 1 -14 -13 -9 -11
3 -22 1 -25 -4 -9 -15 6 -20 31 -10 15 5 21 14 18 29 -2 11 0 18 6 15 5 -4 9
-1 9 4 0 6 2 11 4 11 3 0 4 -10 2 -22z m140 0 c4 -7 4 -10 -1 -6 -4 4 -20 -1
-35 -12 -16 -11 -36 -20 -47 -20 -10 1 1 10 27 24 25 13 46 24 47 25 1 0 5 -5
9 -11z m20 -16 c-3 -4 8 -13 25 -19 31 -12 37 -5 17 16 -11 10 -10 11 4 6 23
-9 28 -28 12 -42 -10 -10 -16 -9 -29 3 -9 9 -27 17 -41 17 -13 0 -24 4 -24 9
0 5 4 7 9 3 5 -3 12 -1 16 5 3 5 8 10 11 10 3 0 3 -4 0 -8z m-300 -67 c-3 -8
-16 -20 -28 -25 -21 -9 -21 -10 7 -7 17 1 33 6 37 11 3 5 5 -3 5 -17 -2 -23
-9 -28 -47 -37 -99 -24 -133 -30 -143 -23 -5 3 -7 2 -4 -4 8 -13 -41 -36 -55
-27 -7 5 -8 2 -3 -6 6 -10 3 -12 -13 -8 -15 4 -22 2 -22 -8 0 -8 5 -14 10 -14
19 0 10 -35 -16 -57 -15 -13 -23 -27 -18 -34 5 -8 12 -4 25 12 10 13 19 18 19
12 0 -7 6 -13 14 -13 16 0 31 17 40 47 6 18 4 22 -8 17 -9 -3 -16 -2 -16 2 1
17 27 44 44 44 9 0 16 4 16 8 0 5 6 9 13 10 6 0 29 5 49 10 25 7 37 6 35 0 -1
-6 4 -13 12 -16 10 -3 12 0 8 12 -7 19 4 21 21 4 8 -8 12 -8 12 -1 0 5 13 10
29 9 20 -1 26 -4 20 -12 -5 -6 -6 -13 -3 -17 3 -3 3 -15 -1 -27 -5 -15 -12
-19 -23 -15 -9 3 -13 3 -10 -1 4 -4 -5 -16 -19 -27 -18 -15 -28 -17 -31 -9 -5
15 -38 16 -47 2 -3 -6 -17 -7 -31 -4 -18 5 -24 2 -24 -11 0 -9 5 -13 10 -10 6
3 10 1 10 -4 0 -6 -3 -11 -7 -11 -5 0 -25 -17 -46 -36 -28 -26 -36 -39 -28
-47 8 -8 11 -6 11 6 0 24 36 22 43 -3 3 -11 1 -20 -3 -20 -5 0 -11 8 -13 18
-4 13 -5 11 -6 -5 0 -13 -6 -23 -12 -23 -6 0 -9 -7 -5 -15 6 -17 -5 -20 -20
-5 -5 5 -24 6 -48 0 -35 -8 -42 -6 -68 21 -16 16 -26 34 -23 40 4 6 -2 5 -14
-3 -12 -7 -21 -16 -21 -20 0 -15 -15 -8 -28 13 -8 12 -9 18 -3 14 6 -3 11 1
11 11 0 11 6 15 20 11 11 -3 23 -1 26 4 3 5 10 6 16 3 6 -4 5 3 -2 16 -9 17
-9 25 1 34 9 8 10 8 5 -1 -8 -14 13 -28 25 -16 4 4 6 18 3 30 -6 23 -8 22 -49
-15 -16 -14 -39 -7 -30 9 3 5 0 6 -8 3 -8 -3 -18 0 -22 6 -4 6 -1 11 6 9 25
-3 37 1 54 18 10 9 31 16 51 15 39 -2 44 5 12 17 -21 8 -19 10 27 32 28 12 52
23 55 24 3 0 19 10 35 21 34 24 72 29 54 7 -15 -18 2 -17 29 3 17 12 22 12 23
2 0 -9 2 -10 5 -1 3 7 13 9 22 6 14 -6 15 -5 2 9 -8 9 -18 14 -22 12 -4 -2 -9
0 -12 5 -6 10 27 25 64 30 6 0 10 9 10 18 0 9 3 14 6 10 4 -3 4 -13 0 -22z
m251 -51 c-3 -3 -12 -4 -19 -1 -8 3 -5 6 6 6 11 1 17 -2 13 -5z m-33 -36 c-3
-4 2 -8 10 -8 21 0 31 -21 15 -31 -8 -5 -18 -9 -24 -9 -5 0 -3 5 5 10 8 5 10
10 5 10 -6 0 -16 -5 -22 -11 -7 -7 -12 -6 -16 5 -4 9 -2 16 3 16 5 0 7 6 4 13
-3 8 2 14 10 14 8 0 13 -4 10 -9z m-57 -33 c0 -6 -9 -12 -19 -12 -10 -1 -25
-9 -34 -17 -19 -19 -34 -21 -34 -3 0 8 -3 7 -9 -3 -14 -21 -5 -28 26 -22 25 5
27 4 14 -11 -18 -22 -33 -21 -49 3 -18 29 1 64 27 51 14 -8 23 -6 37 8 22 20
41 23 41 6z m3 -33 c0 -5 10 -8 21 -8 12 1 24 -6 26 -14 4 -13 3 -13 -7 0 -9
11 -13 12 -17 3 -7 -19 -27 -16 -41 7 -10 17 -10 20 3 20 8 0 15 -4 15 -8z
m-26 -56 c-3 -9 -10 -13 -16 -10 -5 3 -4 12 3 20 15 18 22 13 13 -10z m-89 4
c4 -6 1 -18 -7 -27 -9 -12 -9 -15 0 -9 6 4 12 3 12 -2 0 -15 -40 -22 -66 -12
-19 8 -24 6 -24 -6 0 -10 6 -13 18 -10 13 4 19 1 19 -9 0 -8 -3 -13 -5 -10 -3
3 -11 -3 -18 -13 -12 -15 -15 -15 -24 -2 -5 8 -8 21 -5 28 2 6 0 12 -5 12 -6
0 -10 -7 -10 -16 0 -9 -5 -12 -12 -8 -7 4 -8 3 -4 -5 4 -6 2 -19 -6 -28 -11
-14 -11 -16 1 -8 11 6 13 4 8 -9 -4 -10 -7 -23 -8 -29 0 -7 -4 -3 -9 8 -9 21
-11 16 -14 -37 0 -14 -4 -30 -8 -34 -4 -4 0 -13 10 -21 15 -13 15 -13 -5 -4
-15 8 -24 8 -28 1 -4 -6 -12 -8 -18 -4 -7 3 -1 -4 12 -16 l25 -21 -30 6 c-16
4 -36 15 -45 25 -16 18 -17 18 -27 -6 -7 -13 -17 -24 -24 -23 -10 0 -10 2 0 6
6 2 12 9 12 14 0 6 -4 7 -10 4 -5 -3 -10 -4 -10 -1 0 2 -3 11 -6 20 -4 11 0
16 15 16 14 0 19 5 15 15 -4 8 -1 15 5 15 6 0 10 -6 8 -12 -2 -14 26 -15 57
-2 15 6 17 4 11 -6 -5 -9 -4 -11 4 -6 15 10 4 26 -17 26 -10 0 -13 3 -7 8 6 4
16 19 24 35 8 15 21 27 30 28 10 0 8 4 -6 9 -13 5 -23 12 -23 15 0 4 4 4 9 1
5 -3 11 6 14 20 4 21 1 25 -14 21 -28 -8 -14 9 21 23 16 7 30 16 30 20 0 4 6
10 14 13 11 4 13 -1 10 -19 -4 -24 9 -33 21 -13 4 6 14 8 22 5 9 -4 11 -2 7 6
-8 12 21 38 42 38 7 0 16 -5 19 -10z m51 -29 c-4 -5 -1 -12 4 -14 6 -3 5 -4
-2 -3 -15 3 -23 26 -8 26 6 0 9 -4 6 -9z m-499 -29 c8 -5 4 -11 -12 -18 -20
-10 -23 -9 -22 7 1 20 14 24 34 11z m553 -2 c0 -5 -6 -10 -13 -10 -8 0 -20
-11 -27 -25 -7 -13 -17 -22 -22 -19 -12 8 -10 24 5 24 7 0 18 9 25 20 13 21
32 27 32 10z m-60 -14 c0 -2 -7 -6 -15 -10 -8 -3 -15 -1 -15 4 0 6 7 10 15 10
8 0 15 -2 15 -4z m-159 -39 c-10 -9 -11 -8 -5 6 3 10 9 15 12 12 3 -3 0 -11
-7 -18z m114 13 c7 -11 -12 -50 -24 -50 -14 0 -21 44 -8 52 16 10 25 10 32 -2z
m22 -22 c-3 -8 -6 -5 -6 6 -1 11 2 17 5 13 3 -3 4 -12 1 -19z m-514 0 c-2 -5
-10 -8 -18 -8 -8 0 -16 3 -18 8 -3 4 5 7 18 7 13 0 21 -3 18 -7z m443 -13 c-3
-8 -1 -15 4 -15 6 0 10 -7 10 -15 0 -20 -6 -19 -30 5 -24 24 -25 27 -2 33 9 3
19 5 21 6 2 0 1 -6 -3 -14z m-46 -24 c0 -9 5 -22 12 -29 9 -9 9 -12 0 -12 -7
0 -12 -7 -12 -15 0 -8 -5 -15 -11 -15 -6 0 -8 7 -5 16 3 8 1 25 -5 37 -9 16
-9 22 0 25 6 2 8 9 5 14 -4 7 -2 8 4 4 7 -4 12 -15 12 -25z m-173 -27 c-3 -3
-12 -4 -19 -1 -8 3 -5 6 6 6 11 1 17 -2 13 -5z m243 -13 c0 -3 -5 -13 -10 -21
-9 -13 -11 -13 -19 0 -5 8 -8 17 -6 20 5 8 35 9 35 1z m-59 -74 c-10 -9 -11
-8 -5 6 3 10 9 15 12 12 3 -3 0 -11 -7 -18z m-132 -38 c-13 -25 -29 -24 -29 2
0 13 -4 18 -12 13 -6 -4 -8 -3 -5 3 4 6 18 8 32 6 20 -4 23 -8 14 -24z m119
13 c2 -7 -6 -12 -17 -12 -12 0 -21 -6 -21 -12 0 -7 -5 -5 -11 5 -6 10 -8 21
-5 24 3 4 6 1 6 -6 0 -7 5 -9 10 -6 6 4 8 10 5 15 -3 4 3 7 12 6 9 -2 19 -8
21 -14z m-175 -23 c3 -12 3 -18 0 -15 -4 3 -13 0 -21 -7 -13 -10 -14 -9 -4 10
9 16 9 23 -1 26 -7 4 -6 6 4 6 9 1 19 -8 22 -20z m18 -42 c-10 -9 -11 -8 -5 6
3 10 9 15 12 12 3 -3 0 -11 -7 -18z m46 -12 c-4 -8 -11 -15 -17 -15 -6 0 -6 7
2 20 14 22 24 19 15 -5z m-150 -22 c10 -16 25 -33 33 -40 10 -8 11 -12 3 -13
-7 0 -20 11 -29 25 -9 14 -20 23 -24 20 -5 -3 -11 -1 -15 5 -3 5 0 10 7 10 9
0 9 3 -2 10 -10 6 -11 10 -3 10 7 0 20 -12 30 -27z m69 -5 l19 -23 -25 20
c-14 11 -27 21 -29 22 -2 2 0 3 6 3 5 0 18 -10 29 -22z m-99 -33 c0 -8 -4 -12
-9 -9 -5 3 -6 10 -3 15 9 13 12 11 12 -6z m-32 -15 c8 0 17 -4 20 -10 3 -5 -1
-8 -9 -5 -9 3 -23 7 -32 10 -9 3 -12 10 -8 17 6 9 9 9 12 0 2 -7 10 -12 17
-12z m-85 -60 c0 8 3 11 6 7 4 -3 4 -13 0 -22 -5 -15 -8 -15 -21 -1 -19 19
-20 32 0 16 12 -10 15 -10 15 0z m34 -15 c-4 -8 -8 -15 -10 -15 -2 0 -4 7 -4
15 0 8 4 15 10 15 5 0 7 -7 4 -15z m-116 -90 c-22 -23 -48 -23 -48 0 0 7 -6
15 -12 18 -7 3 -3 4 10 4 12 -1 22 -8 22 -17 1 -11 5 -10 18 6 9 12 21 20 25
17 4 -2 -2 -15 -15 -28z m-213 -125 c-3 -5 -14 -10 -23 -9 -14 0 -13 2 3 9 27
11 27 11 20 0z m75 -34 c0 -3 -4 -8 -10 -11 -5 -3 -10 -1 -10 4 0 6 5 11 10
11 6 0 10 -2 10 -4z m-185 -25 c3 -5 1 -12 -4 -15 -5 -4 -12 -2 -16 3 -3 6
-13 7 -22 4 -11 -4 -14 -3 -9 5 9 14 42 16 51 3z m-103 -26 c0 -5 -14 -16 -31
-23 -31 -12 -32 -12 -21 8 6 11 15 18 21 15 5 -4 9 -1 9 5 0 14 21 9 22 -5z
m-95 -31 c-3 -3 -12 -4 -19 -1 -8 3 -5 6 6 6 11 1 17 -2 13 -5z m173 -14 c0
-5 -2 -10 -4 -10 -3 0 -8 5 -11 10 -3 6 -1 10 4 10 6 0 11 -4 11 -10z m-320
-24 c0 -3 -4 -8 -10 -11 -5 -3 -10 -1 -10 4 0 6 5 11 10 11 6 0 10 -2 10 -4z
m40 -6 c0 -5 -5 -10 -11 -10 -5 0 -7 5 -4 10 3 6 8 10 11 10 2 0 4 -4 4 -10z
m-20 -45 c0 -8 -4 -15 -10 -15 -5 0 -10 -7 -10 -15 0 -8 9 -15 21 -15 11 0 18
-4 14 -10 -4 -6 -15 -6 -30 0 -15 6 -35 6 -48 1 -15 -6 -26 -4 -35 5 -12 13
-8 18 11 15 4 0 6 5 5 12 -2 6 4 12 12 12 8 1 24 6 35 13 27 15 35 15 35 -3z
m35 -15 c3 -6 -1 -7 -9 -4 -18 7 -21 14 -7 14 6 0 13 -4 16 -10z m-242 -17
c-7 -2 -19 -2 -25 0 -7 3 -2 5 12 5 14 0 19 -2 13 -5z m-378 -23 c4 -6 -5 -10
-20 -10 -15 0 -24 4 -20 10 3 6 12 10 20 10 8 0 17 -4 20 -10z m55 0 c0 -5 -2
-10 -4 -10 -3 0 -8 5 -11 10 -3 6 -1 10 4 10 6 0 11 -4 11 -10z m73 -15 c-7
-21 -13 -19 -13 6 0 11 4 18 10 14 5 -3 7 -12 3 -20z m216 16 c9 -6 6 -8 -13
-8 -14 0 -23 3 -20 8 7 11 15 11 33 0z m106 -5 c29 7 44 -15 22 -31 -9 -7 -14
-14 -11 -17 2 -3 -13 -2 -36 2 -23 4 -40 3 -40 -2 0 -5 -5 -6 -10 -3 -6 4 -7
12 -4 18 5 8 3 8 -7 0 -15 -15 -33 -17 -24 -4 3 5 -3 12 -12 14 -14 4 -13 5 4
6 12 0 24 5 27 10 3 4 17 7 31 6 14 -2 25 2 26 8 0 8 2 8 6 0 3 -8 14 -11 28
-7z m-352 -3 c-7 -2 -19 -2 -25 0 -7 3 -2 5 12 5 14 0 19 -2 13 -5z m67 -13
c0 -5 -2 -10 -4 -10 -3 0 -8 5 -11 10 -3 6 -1 10 4 10 6 0 11 -4 11 -10z
m-100 -20 c0 -12 -57 -13 -64 -2 -3 5 10 9 29 10 19 1 35 -3 35 -8z m233 0
c-2 -3 -9 -6 -14 -6 -5 -1 -10 -3 -11 -4 -9 -9 -50 -5 -58 6 -9 10 -1 12 39
11 27 -1 47 -4 44 -7z"/>
<path d="M5210 3506 c0 -2 7 -9 15 -16 9 -7 15 -8 15 -2 0 5 -7 12 -15 16 -8
3 -15 4 -15 2z"/>
<path d="M4965 3410 c3 -5 8 -10 11 -10 2 0 4 5 4 10 0 6 -5 10 -11 10 -5 0
-7 -4 -4 -10z"/>
<path d="M4927 3396 c-4 -9 -16 -16 -27 -16 -13 0 -18 -4 -15 -11 4 -6 13 -8
20 -5 7 2 19 -1 26 -7 8 -7 10 -8 6 -3 -4 5 -3 14 3 20 5 7 5 18 1 25 -6 10
-10 9 -14 -3z"/>
<path d="M5034 3385 c-10 -8 -15 -15 -10 -15 5 0 2 -8 -5 -17 -13 -16 -12 -17
3 -4 10 7 15 17 12 22 -3 5 2 9 10 9 9 0 16 5 16 10 0 13 -3 13 -26 -5z"/>
<path d="M4960 3360 c0 -5 4 -10 9 -10 6 0 13 5 16 10 3 6 -1 10 -9 10 -9 0
-16 -4 -16 -10z"/>
<path d="M4740 3320 c0 -5 5 -10 11 -10 5 0 7 5 4 10 -3 6 -8 10 -11 10 -2 0
-4 -4 -4 -10z"/>
<path d="M4770 3249 c0 -6 -7 -17 -15 -25 -13 -14 -13 -17 1 -31 12 -12 18
-13 27 -4 9 9 8 14 -3 21 -13 8 -12 10 3 10 10 0 17 8 17 20 0 11 -7 20 -15
20 -8 0 -15 -5 -15 -11z"/>
<path d="M4810 3235 c0 -8 2 -15 4 -15 2 0 6 7 10 15 3 8 1 15 -4 15 -6 0 -10
-7 -10 -15z"/>
<path d="M4795 3191 c-3 -5 -1 -12 5 -16 5 -3 10 1 10 9 0 18 -6 21 -15 7z"/>
<path d="M4940 3280 c0 -6 4 -9 9 -6 5 4 12 1 14 -4 3 -6 4 -5 3 2 -3 15 -26
23 -26 8z"/>
<path d="M3855 4686 c17 -8 32 -12 34 -10 7 6 -2 11 -34 17 l-30 6 30 -13z"/>
<path d="M4276 4457 c3 -10 9 -15 12 -12 3 3 0 11 -7 18 -10 9 -11 8 -5 -6z"/>
<path d="M4300 4381 c0 -6 5 -13 12 -17 6 -4 8 -3 4 4 -3 5 0 13 6 15 8 3 6 6
-4 6 -10 1 -18 -3 -18 -8z"/>
<path d="M2656 4331 c-10 -10 -14 -21 -9 -24 5 -3 13 6 20 19 13 29 11 30 -11
5z"/>
<path d="M4441 4175 c0 -11 4 -29 9 -40 8 -18 9 -18 9 5 0 14 -4 32 -9 40 -8
12 -10 12 -9 -5z"/>
<path d="M2704 4166 c-41 -18 -92 -89 -99 -141 -5 -27 -12 -42 -21 -42 -8 0
-13 6 -10 13 3 8 0 11 -9 8 -9 -4 -11 -13 -5 -33 4 -16 6 -40 3 -55 -5 -23 -1
-28 23 -25 3 0 19 -19 36 -43 17 -24 34 -45 38 -48 3 -3 10 -14 13 -24 4 -10
10 -16 14 -12 3 3 16 0 27 -7 28 -18 125 -21 175 -6 32 10 146 89 128 89 -3 0
3 23 14 50 21 54 26 170 8 170 -5 0 -8 3 -6 8 3 4 -15 23 -39 42 -24 19 -44
43 -44 52 0 16 -12 18 -107 18 -67 -1 -120 -6 -139 -14z"/>
<path d="M2568 3849 c-4 -9 -2 -36 4 -60 13 -54 34 -80 23 -29 -4 19 -10 51
-14 70 -5 24 -9 30 -13 19z"/>
<path d="M5640 3834 c0 -16 9 -18 28 -5 10 6 9 10 -7 14 -14 3 -21 0 -21 -9z"/>
<path d="M3161 3664 c0 -11 3 -14 6 -6 3 7 2 16 -1 19 -3 4 -6 -2 -5 -13z"/>
<path d="M3840 3610 c0 -5 10 -10 23 -10 18 0 19 2 7 10 -19 13 -30 13 -30 0z"/>
<path d="M3168 3328 c9 -9 15 -9 24 0 9 9 7 12 -12 12 -19 0 -21 -3 -12 -12z"/>
<path d="M4543 3055 c0 -27 2 -38 4 -22 2 15 2 37 0 50 -2 12 -4 0 -4 -28z"/>
<path d="M3620 2410 c0 -5 5 -10 10 -10 6 0 10 5 10 10 0 6 -4 10 -10 10 -5 0
-10 -4 -10 -10z"/>
</g>
</svg>
